# xmcd
#
# Track frame offsets:
#	150
#	13260
#	29972
#	34037
#	49214
#	69289
#	84257
#	88178
#	107800
#	110274
#	126783
#	136957
#	139220
#
# Disc length: 2377 seconds
#
# Revision: 0
# Processed by: cddbd v1.5.2PL0 Copyright (c) Steve Scherf et al.
# Submitted via: dBpowerAMP V4.0
#
DISCID=b509470d
DTITLE=Stig Of The Dump - The Homeless Microphonist E.P.
DYEAR=2006
DGENRE=Hip-Hop
TTITLE0=Intro
TTITLE1=The Journey
TTITLE2=Breaking Shit Down
TTITLE3=The Introduction
TTITLE4=Rhite Whino
TTITLE5=Ill Billys ft. Subliminal
TTITLE6=Marky G (skit)
TTITLE7=Fatty and Specky ft. Dr. Syntax
TTITLE8=Prizzle Mic Check (skit)
TTITLE9=On A Rampage
TTITLE10=I Never
TTITLE11=Crack A Tin (skit)
TTITLE12=Raise Ya Glasses ft. Skrein
EXTD=
EXTT0=
EXTT1=
EXTT2=
EXTT3=
EXTT4=
EXTT5=
EXTT6=
EXTT7=
EXTT8=
EXTT9=
EXTT10=
EXTT11=
EXTT12=
PLAYORDER=
